<svg width="64" height="74" viewBox="0 0 64 74" fill="none" xmlns="http://www.w3.org/2000/svg">
<path d="M59.4286 4.57129H4.55714C2.04286 4.57129 0 6.64272 0 9.18558V63.957C0 66.4999 2.04286 68.5713 4.55714 68.5713H59.4286C61.9429 68.5713 64 66.4999 64 63.957V9.18558C64 6.64272 61.9429 4.57129 59.4286 4.57129ZM19.3429 59.4284H9.85714V28.8856H19.3571V59.4284H19.3429ZM14.6 24.7141C11.5571 24.7141 9.1 22.2427 9.1 19.2141C9.1 16.1856 11.5571 13.7141 14.6 13.7141C17.6286 13.7141 20.1 16.1856 20.1 19.2141C20.1 22.257 17.6429 24.7141 14.6 24.7141ZM54.9 59.4284H45.4143V44.5713C45.4143 41.0284 45.3429 36.4713 40.4857 36.4713C35.5429 36.4713 34.7857 40.3284 34.7857 44.3141V59.4284H25.3V28.8856H34.4V33.057H34.5286C35.8 30.657 38.9 28.1284 43.5143 28.1284C53.1143 28.1284 54.9 34.457 54.9 42.6856V59.4284Z" fill="white"/>
</svg>
