<svg width="64" height="74" viewBox="0 0 64 74" fill="none" xmlns="http://www.w3.org/2000/svg">
<path d="M64 13.7141C64 8.67129 59.9 4.57129 54.8571 4.57129H9.14286C4.1 4.57129 0 8.67129 0 13.7141V59.4284C0 64.4713 4.1 68.5713 9.14286 68.5713H54.8571C59.9 68.5713 64 64.4713 64 59.4284V13.7141ZM37.9714 58.2427C37.9714 57.9856 37.9714 57.3856 37.9857 56.5856C38 54.957 38 52.4713 38 50.3427C38 48.1141 37.2571 46.6999 36.3857 45.957C41.6714 45.3713 47.2429 44.6427 47.2429 35.5141C47.2429 32.9141 46.3143 31.6141 44.8 29.9427C45.0429 29.3284 45.8571 26.7999 44.5571 23.5141C42.5714 22.8999 38.0286 26.0713 38.0286 26.0713C36.1429 25.5427 34.1 25.2713 32.0857 25.2713C30.0714 25.2713 28.0286 25.5427 26.1429 26.0713C26.1429 26.0713 21.6 22.8999 19.6143 23.5141C18.3143 26.7856 19.1143 29.3141 19.3714 29.9427C17.8571 31.6141 17.1429 32.9141 17.1429 35.5141C17.1429 44.5999 22.4714 45.3713 27.7571 45.957C27.0714 46.5713 26.4571 47.6284 26.2429 49.1427C24.8857 49.757 21.4143 50.8141 19.3429 47.157C18.0429 44.8999 15.7 44.7141 15.7 44.7141C13.3857 44.6856 15.5429 46.1713 15.5429 46.1713C17.0857 46.8856 18.1714 49.6284 18.1714 49.6284C19.5571 53.8713 26.1857 52.4427 26.1857 52.4427C26.1857 53.7284 26.2 55.5427 26.2 56.8142C26.2 57.4999 26.2143 58.0427 26.2143 58.2427C26.2143 58.857 25.7857 59.5999 24.5714 59.3856C15.1429 56.2284 8.54286 47.257 8.54286 36.7713C8.54286 23.657 18.5714 13.6999 31.6857 13.6999C44.8 13.6999 55.4286 23.657 55.4286 36.7713C55.4429 47.257 49.0429 56.2427 39.6143 59.3856C38.4143 59.5999 37.9714 58.857 37.9714 58.2427ZM25.0429 50.4141C25.0143 50.1999 25.2 50.0141 25.4714 49.957C25.7429 49.9284 26 50.0427 26.0286 50.2284C26.0714 50.4141 25.8857 50.5999 25.6 50.657C25.3286 50.7141 25.0714 50.5999 25.0429 50.4141ZM23.7429 50.8713C23.4286 50.8999 23.2143 50.7427 23.2143 50.5284C23.2143 50.3427 23.4286 50.1856 23.7143 50.1856C23.9857 50.157 24.2429 50.3141 24.2429 50.5284C24.2429 50.7142 24.0286 50.8713 23.7429 50.8713ZM21.7 50.557C21.4286 50.4999 21.2429 50.2856 21.3 50.0999C21.3571 49.9141 21.6429 49.8284 21.8857 49.8856C22.1714 49.9713 22.3571 50.1856 22.2857 50.3713C22.2286 50.557 21.9429 50.6427 21.7 50.557ZM19.9143 49.5141C19.7 49.3284 19.6429 49.057 19.7857 48.9284C19.9143 48.7713 20.1857 48.7999 20.4 49.0141C20.5857 49.1999 20.6571 49.4856 20.5286 49.5999C20.4 49.757 20.1286 49.7284 19.9143 49.5141ZM18.7 48.0856C18.5429 47.8713 18.5429 47.6284 18.7 47.5284C18.8571 47.3999 19.1 47.4999 19.2286 47.7141C19.3857 47.9284 19.3857 48.1856 19.2286 48.2999C19.1 48.3856 18.8571 48.2999 18.7 48.0856ZM17.8 46.8284C17.6429 46.6427 17.6143 46.4284 17.7429 46.3284C17.8714 46.1999 18.0857 46.2713 18.2429 46.4141C18.4 46.5999 18.4286 46.8141 18.3 46.9141C18.1714 47.0427 17.9571 46.9713 17.8 46.8284ZM16.9429 45.9141C16.7571 45.8284 16.6714 45.6713 16.7286 45.5427C16.7857 45.457 16.9429 45.4141 17.1286 45.4856C17.3143 45.5856 17.4 45.7427 17.3429 45.857C17.2857 45.9856 17.1 46.0141 16.9429 45.9141Z" fill="white"/>
</svg>
